<svg 
  aria-hidden="true"
  focusable="false"
  data-icon="sun"
  role="img"
  xmlns="http://www.w3.org/2000/svg"
  viewBox="0 0 512 512">
	<g>
		<g>
			<path fill="inherit" d="m256 98.294c-8.284 0-15-6.716-15-15v-68.294c0-8.284 6.716-15 15-15s15 6.716 15 15v68.294c0 8.284-6.716 15-15 15z"/>
		</g>
		<g>
			<path fill="inherit" d="m497 271h-68.294c-8.284 0-15-6.716-15-15s6.716-15 15-15h68.294c8.284 0 15 6.716 15 15s-6.716 15-15 15z"/>
		</g>
		<g>
			<path fill="inherit" d="m256 512c-8.284 0-15-6.716-15-15v-68.294c0-8.284 6.716-15 15-15s15 6.716 15 15v68.294c0 8.284-6.716 15-15 15z"/>
		</g>
		<g>
			<path fill="inherit" d="m83.294 271h-68.294c-8.284 0-15-6.716-15-15s6.716-15 15-15h68.294c8.284 0 15 6.716 15 15s-6.716 15-15 15z"/>
		</g>
		<g>
			<g>
				<g>
					<path fill="inherit" d="m256 385.5c-71.406 0-129.499-58.094-129.499-129.5s58.093-129.5 129.499-129.5 129.5 58.094 129.5 129.5-58.094 129.5-129.5 129.5zm0-229c-54.864 0-99.499 44.636-99.499 99.5s44.635 99.5 99.499 99.5 99.5-44.636 99.5-99.5-44.636-99.5-99.5-99.5z"/>
				</g>
			</g>
		</g>
		<g>
			<path fill="inherit" d="m395.925 131.909c-3.839 0-7.678-1.465-10.606-4.394-5.858-5.857-5.858-15.355 0-21.213l36.853-36.853c5.857-5.857 15.355-5.857 21.213 0s5.858 15.355 0 21.213l-36.853 36.853c-2.929 2.929-6.768 4.394-10.607 4.394z"/>
		</g>
		<g>
			<path fill="inherit" d="m432.777 448.61c-3.839 0-7.678-1.465-10.606-4.394l-36.853-36.853c-5.858-5.857-5.858-15.355 0-21.213 5.857-5.857 15.355-5.857 21.213 0l36.853 36.853c5.858 5.857 5.858 15.355 0 21.213-2.929 2.93-6.768 4.394-10.607 4.394z"/>
		</g>
		<g>
			<path fill="inherit" d="m79.224 448.61c-3.839 0-7.678-1.465-10.606-4.394-5.858-5.857-5.858-15.355 0-21.213l36.853-36.853c5.857-5.857 15.355-5.857 21.213 0s5.858 15.355 0 21.213l-36.854 36.854c-2.929 2.929-6.768 4.393-10.606 4.393z"/>
		</g>
		<g>
			<path fill="inherit" d="m116.076 131.909c-3.839 0-7.678-1.465-10.606-4.394l-36.853-36.852c-5.858-5.857-5.858-15.355 0-21.213 5.857-5.857 15.355-5.857 21.213 0l36.853 36.853c5.858 5.857 5.858 15.355 0 21.213-2.929 2.928-6.768 4.393-10.607 4.393z"/>
		</g>
	</g>
</svg>